<svg xmlns="http://www.w3.org/2000/svg" version="1.1" xmlns:xlink="http://www.w3.org/1999/xlink" xmlns:svgjs="http://svgjs.dev/svgjs" width="1000" height="623" viewBox="0 0 1000 623"><g transform="matrix(1,0,0,1,-0.6060606060605664,0.2522267206477409)"><svg viewBox="0 0 396 247" data-background-color="#ffffff" preserveAspectRatio="xMidYMid meet" height="623" width="1000" xmlns="http://www.w3.org/2000/svg" xmlns:xlink="http://www.w3.org/1999/xlink"><g id="tight-bounds" transform="matrix(1,0,0,1,0.2400000000000091,-0.09999999999999432)"><svg viewBox="0 0 395.52 247.2" height="247.2" width="395.52"><g><svg></svg></g><g><svg viewBox="0 0 395.52 247.2" height="247.2" width="395.52"><g transform="matrix(1,0,0,1,75.54432,73.97498701282242)"><svg viewBox="0 0 244.43135999999998 99.25002597435514" height="99.25002597435514" width="244.43135999999998"><g><svg viewBox="0 0 244.43135999999998 99.25002597435514" height="99.25002597435514" width="244.43135999999998"><g><svg viewBox="0 0 244.43135999999998 99.25002597435514" height="99.25002597435514" width="244.43135999999998"><g><svg viewBox="0 0 244.43135999999998 99.25002597435514" height="99.25002597435514" width="244.43135999999998"><g id="textblocktransform"><svg viewBox="0 0 244.43135999999998 99.25002597435514" height="99.25002597435514" width="244.43135999999998" id="textblock"><g><svg viewBox="0 0 244.43135999999998 62.710242608079376" height="62.710242608079376" width="244.43135999999998"><g transform="matrix(1,0,0,1,0,0)"><svg width="244.43135999999998" viewBox="0.8500000238418579 -35.599998474121094 141.08999633789062 36.19999694824219" height="62.710242608079376" data-palette-color="#4d7e3e"><path d="M17.75 0L12.45 0 12.45-12.9 0.85-35 6.85-35 15.1-18.1 23.3-35 29.25-35 17.75-12.9 17.75 0ZM38.95 0L33.65 0 33.65-35 39.9-35 51.75-11.7 63.55-35 69.8-35 69.8 0 64.5 0 64.5-25.85 53.8-5 49.7-5 38.95-25.8 38.95 0ZM92.5 0.6L92.5 0.6Q87.3 0.6 83.52-1.68 79.75-3.95 77.69-8.03 75.64-12.1 75.64-17.45L75.64-17.45Q75.64-22.85 77.69-26.93 79.75-31 83.52-33.3 87.3-35.6 92.5-35.6L92.5-35.6Q98.64-35.6 102.55-32.6 106.44-29.6 107.5-24.2L107.5-24.2 101.59-24.2Q100.89-27.25 98.59-29.05 96.3-30.85 92.44-30.85L92.44-30.85Q87.19-30.85 84.14-27.28 81.09-23.7 81.09-17.45L81.09-17.45Q81.09-11.25 84.14-7.7 87.19-4.15 92.44-4.15L92.44-4.15Q96.3-4.15 98.59-5.85 100.89-7.55 101.59-10.5L101.59-10.5 107.5-10.5Q106.44-5.3 102.55-2.35 98.64 0.6 92.5 0.6ZM116.04 0L110.44 0 123.34-35 129.14-35 141.94 0 136.34 0 133.34-8.55 119.04-8.55 116.04 0ZM126.19-28.7L120.54-12.75 131.84-12.75 126.19-28.7Z" opacity="1" transform="matrix(1,0,0,1,0,0)" fill="#4d7e3e" class="undefined-text-0" data-fill-palette-color="primary" id="text-0"></path></svg></g></svg></g><g transform="matrix(1,0,0,1,0,77.51462584202432)"><svg viewBox="0 0 244.43135999999998 21.735400132330824" height="21.735400132330824" width="244.43135999999998"><g transform="matrix(1,0,0,1,0,0)"><svg width="244.43135999999998" viewBox="0.15000000596046448 -33.599998474121094 498.75 44.349998474121094" height="21.735400132330824" data-palette-color="#31c48d"><path d="M0.15-32.5L0.15-33 7.05-33 7.05-32.5Q6.7-32.45 6.4-32.2 6.1-31.95 6.1-31.45L6.1-31.45Q6.1-31.2 6.25-30.9L6.25-30.9 13.75-17.75 20.95-30.2Q21.15-30.6 21.23-30.8 21.3-31 21.3-31.3L21.3-31.3Q21.2-32.1 20.73-32.3 20.25-32.5 20.15-32.5L20.15-32.5 20.15-33 25.5-33 25.5-32.5Q24.75-32.5 23.98-31.58 23.2-30.65 22.65-29.7L22.65-29.7 14.85-16.2 14.85-3.25Q14.85-2.85 14.98-2.4 15.1-1.95 15.3-1.53 15.5-1.1 15.8-0.8 16.1-0.5 16.5-0.5L16.5-0.5 16.75-0.5 16.75 0 9.6 0 9.6-0.5 9.85-0.5Q10.25-0.5 10.55-0.78 10.85-1.05 11.08-1.48 11.3-1.9 11.4-2.38 11.5-2.85 11.5-3.25L11.5-3.25 11.5-15.75 3.45-29.55Q3.2-29.95 2.85-30.45 2.5-30.95 2.1-31.4 1.7-31.85 1.25-32.18 0.8-32.5 0.4-32.5L0.4-32.5 0.15-32.5ZM33.45 0.35L33.45 0.35Q30.95 0.35 28.95-0.48 26.95-1.3 25.53-2.73 24.1-4.15 23.33-6.1 22.55-8.05 22.55-10.35L22.55-10.35Q22.55-12.8 23.4-14.83 24.25-16.85 25.75-18.3 27.25-19.75 29.3-20.55 31.35-21.35 33.75-21.35L33.75-21.35Q36.15-21.35 38.15-20.58 40.15-19.8 41.6-18.4 43.05-17 43.85-15.08 44.65-13.15 44.65-10.85L44.65-10.85Q44.65-8.7 43.93-6.68 43.2-4.65 41.78-3.1 40.35-1.55 38.28-0.6 36.2 0.35 33.45 0.35ZM33.15-19.7L33.15-19.7Q31.35-19.6 29.98-18.82 28.6-18.05 27.68-16.82 26.75-15.6 26.28-14.05 25.8-12.5 25.8-10.9L25.8-10.9Q25.8-9.05 26.38-7.33 26.95-5.6 28.03-4.25 29.1-2.9 30.6-2.1 32.1-1.3 33.95-1.3L33.95-1.3Q35.8-1.3 37.23-2.1 38.65-2.9 39.6-4.17 40.55-5.45 41.03-7.05 41.5-8.65 41.5-10.25L41.5-10.25Q41.5-11.9 41-13.58 40.5-15.25 39.45-16.63 38.4-18 36.83-18.85 35.25-19.7 33.15-19.7ZM68.9-21.55L68.9-3.25Q68.9-2.9 69-2.43 69.1-1.95 69.28-1.53 69.45-1.1 69.75-0.8 70.05-0.5 70.45-0.5L70.45-0.5 70.45 0 65.6 0 65.6-2.75Q64.85-1.65 63.4-0.6 61.95 0.45 59.65 0.45L59.65 0.45Q56.75 0.45 55.05-0.55 53.35-1.55 52.45-3.1 51.55-4.65 51.3-6.48 51.05-8.3 51.05-9.9L51.05-9.9 51.05-17.05Q51.05-17.5 51.03-17.93 51-18.35 50.83-18.7 50.65-19.05 50.3-19.28 49.95-19.5 49.3-19.5L49.3-19.5 49.3-19.95 54.35-21.55 54.35-8.8Q54.35-5 56-3.2 57.65-1.4 60.05-1.4L60.05-1.4Q61.35-1.4 62.38-1.98 63.4-2.55 64.13-3.35 64.85-4.15 65.23-5 65.6-5.85 65.6-6.4L65.6-6.4 65.6-17.05Q65.6-17.5 65.58-17.93 65.55-18.35 65.38-18.7 65.2-19.05 64.85-19.28 64.5-19.5 63.85-19.5L63.85-19.5 63.85-19.95 68.9-21.55ZM89-20.4L87.5-17.35Q86.9-18.35 86.25-18.6 85.6-18.85 84.75-18.85L84.75-18.85Q84.2-18.85 83.58-18.6 82.95-18.35 82.35-17.95 81.75-17.55 81.18-17.07 80.6-16.6 80.2-16.2L80.2-16.2 80.2-3.2Q80.2-2.8 80.3-2.35 80.4-1.9 80.63-1.48 80.85-1.05 81.13-0.78 81.4-0.5 81.8-0.5L81.8-0.5 81.8 0 75.3 0 75.3-0.5Q75.65-0.5 75.95-0.78 76.25-1.05 76.48-1.48 76.7-1.9 76.8-2.35 76.9-2.8 76.9-3.2L76.9-3.2 76.9-17.15Q76.9-17.85 76.45-18.55 76-19.25 75.15-19.45L75.15-19.45 75.15-19.85 80.2-21.35 80.2-18.35Q80.65-18.9 81.15-19.43 81.65-19.95 82.28-20.38 82.9-20.8 83.65-21.08 84.4-21.35 85.4-21.35L85.4-21.35Q86.1-21.35 87.2-21.05 88.3-20.75 89-20.4L89-20.4ZM132.05 0L132.05-0.5 132.3-0.5Q132.65-0.5 132.95-0.8 133.25-1.1 133.48-1.5 133.7-1.9 133.8-2.38 133.9-2.85 133.9-3.25L133.9-3.25 133.9-29.55 121 0.55 108.75-28 108.75-3.25Q108.75-2.85 108.85-2.38 108.95-1.9 109.18-1.5 109.4-1.1 109.7-0.8 110-0.5 110.4-0.5L110.4-0.5 110.65-0.5 110.65 0 105.2 0 105.2-0.5 105.45-0.5Q105.8-0.5 106.1-0.8 106.4-1.1 106.6-1.5 106.8-1.9 106.9-2.38 107-2.85 107-3.25L107-3.25 107-29.9Q107-30.25 106.9-30.7 106.8-31.15 106.6-31.55 106.4-31.95 106.1-32.23 105.8-32.5 105.45-32.5L105.45-32.5 105.2-32.5 105.2-33 110.3-33 121.9-5.65 133.5-33 139.15-33 139.15-32.5 138.9-32.5Q138.5-32.5 138.2-32.23 137.9-31.95 137.68-31.55 137.45-31.15 137.35-30.7 137.25-30.25 137.25-29.9L137.25-29.9 137.25-3.25Q137.25-2.85 137.35-2.38 137.45-1.9 137.68-1.5 137.9-1.1 138.2-0.8 138.5-0.5 138.9-0.5L138.9-0.5 139.15-0.5 139.15 0 132.05 0ZM154.5 0.35L154.5 0.35Q152 0.35 150-0.48 148-1.3 146.57-2.73 145.15-4.15 144.38-6.1 143.6-8.05 143.6-10.35L143.6-10.35Q143.6-12.8 144.45-14.83 145.3-16.85 146.8-18.3 148.3-19.75 150.35-20.55 152.4-21.35 154.8-21.35L154.8-21.35Q157.2-21.35 159.2-20.58 161.2-19.8 162.65-18.4 164.1-17 164.9-15.08 165.7-13.15 165.7-10.85L165.7-10.85Q165.7-8.7 164.97-6.68 164.25-4.65 162.82-3.1 161.4-1.55 159.32-0.6 157.25 0.35 154.5 0.35ZM154.2-19.7L154.2-19.7Q152.4-19.6 151.03-18.82 149.65-18.05 148.72-16.82 147.8-15.6 147.32-14.05 146.85-12.5 146.85-10.9L146.85-10.9Q146.85-9.05 147.43-7.33 148-5.6 149.07-4.25 150.15-2.9 151.65-2.1 153.15-1.3 155-1.3L155-1.3Q156.85-1.3 158.28-2.1 159.7-2.9 160.65-4.17 161.6-5.45 162.07-7.05 162.55-8.65 162.55-10.25L162.55-10.25Q162.55-11.9 162.05-13.58 161.55-15.25 160.5-16.63 159.45-18 157.88-18.85 156.3-19.7 154.2-19.7ZM190.25-12.9L190.25-3.25Q190.25-2.85 190.35-2.38 190.45-1.9 190.68-1.5 190.9-1.1 191.18-0.8 191.45-0.5 191.85-0.5L191.85-0.5 191.85 0 185.4 0 185.4-0.5Q185.75-0.5 186.05-0.8 186.35-1.1 186.58-1.5 186.8-1.9 186.9-2.38 187-2.85 187-3.25L187-3.25 187-12.55Q187-14.35 186.5-15.7 186-17.05 185.15-17.95 184.3-18.85 183.22-19.28 182.15-19.7 181.05-19.7L181.05-19.7Q179.95-19.7 178.88-19.25 177.8-18.8 176.97-18.07 176.15-17.35 175.63-16.38 175.1-15.4 175.1-14.35L175.1-14.35 175.1-3.25Q175.1-2.85 175.2-2.38 175.3-1.9 175.53-1.5 175.75-1.1 176.03-0.8 176.3-0.5 176.7-0.5L176.7-0.5 176.7 0 170.2 0 170.2-0.5Q170.55-0.5 170.85-0.8 171.15-1.1 171.38-1.5 171.6-1.9 171.7-2.38 171.8-2.85 171.8-3.25L171.8-3.25 171.8-17.05Q171.8-17.9 171.55-18.68 171.3-19.45 170.1-19.5L170.1-19.5 170.1-19.95 175.1-21.55 175.1-18.8Q175.45-19.2 176-19.68 176.55-20.15 177.33-20.58 178.1-21 179.13-21.28 180.15-21.55 181.55-21.55L181.55-21.55Q183.9-21.55 185.55-20.75 187.2-19.95 188.25-18.68 189.3-17.4 189.78-15.88 190.25-14.35 190.25-12.9L190.25-12.9ZM216.85-10.1L199.5-10.1Q199.7-8.35 200.35-6.78 201-5.2 202.07-4 203.15-2.8 204.7-2.08 206.25-1.35 208.3-1.35L208.3-1.35Q209.4-1.35 210.63-1.68 211.85-2 212.9-2.6 213.95-3.2 214.78-4.08 215.6-4.95 215.9-6.05L215.9-6.05 216.35-6.05 216.35-2.3Q216.05-2.3 215.68-2.1 215.3-1.9 214.8-1.6L214.8-1.6Q213.8-1 212.1-0.33 210.4 0.35 207.6 0.35L207.6 0.35Q205.35 0.35 203.32-0.3 201.3-0.95 199.75-2.3 198.2-3.65 197.28-5.75 196.35-7.85 196.35-10.75L196.35-10.75Q196.35-12.6 196.97-14.5 197.6-16.4 198.88-17.93 200.15-19.45 202.15-20.4 204.15-21.35 206.95-21.35L206.95-21.35Q209.45-21.35 211.32-20.5 213.2-19.65 214.43-18.15 215.65-16.65 216.25-14.6 216.85-12.55 216.85-10.1L216.85-10.1ZM206.75-19.7L206.75-19.7Q205-19.7 203.72-19 202.45-18.3 201.55-17.2 200.65-16.1 200.15-14.7 199.65-13.3 199.5-11.9L199.5-11.9 213.75-11.9Q213.7-13.35 213.22-14.75 212.75-16.15 211.9-17.25 211.05-18.35 209.75-19.03 208.45-19.7 206.75-19.7ZM239.3-18.3L229 7.15Q228.3 9.25 227.22 10 226.15 10.75 225 10.75L225 10.75Q224.25 10.75 223.68 10.55 223.1 10.35 222.68 10.08 222.25 9.8 222 9.55 221.75 9.3 221.7 9.15L221.7 9.15 223.35 5.1Q223.6 6 223.85 6.45L223.85 6.45Q224.1 6.95 224.55 7.35 225 7.75 225.65 7.75L225.65 7.75Q226.85 7.75 227.55 6L227.55 6 230-0.15 221.95-18.35Q221.7-18.95 221.13-19.73 220.55-20.5 219.55-20.5L219.55-20.5 219.55-21 226.15-21 226.15-20.5Q225.95-20.5 225.65-20.15 225.35-19.8 225.35-19.25L225.35-19.25Q225.35-18.8 225.55-18.45L225.55-18.45 231.7-4.3 237.6-18.75Q237.75-19.1 237.75-19.4L237.75-19.4Q237.75-19.9 237.43-20.2 237.1-20.5 236.75-20.5L236.75-20.5 236.75-21 241.6-21 241.6-20.5Q240.8-20.5 240.22-19.83 239.65-19.15 239.3-18.3L239.3-18.3ZM275.3-31.7L275.3-31.7Q271.6-31.7 268.88-30.38 266.15-29.05 264.35-26.93 262.55-24.8 261.68-22.15 260.8-19.5 260.8-16.9L260.8-16.9Q260.8-13.95 261.95-11.13 263.1-8.3 265.13-6.13 267.15-3.95 269.85-2.63 272.55-1.3 275.7-1.3L275.7-1.3Q276.6-1.3 277.82-1.5 279.05-1.7 280.25-2.27 281.45-2.85 282.47-3.9 283.5-4.95 284.05-6.65L284.05-6.65 284.55-6.65 284.55-1.1Q283.8-1.1 282.97-0.9 282.15-0.7 281.15-0.45L281.15-0.45Q279.85-0.1 278.27 0.2 276.7 0.5 274.95 0.5L274.95 0.5Q270.6 0.5 267.3-1 264-2.5 261.8-4.9 259.6-7.3 258.5-10.33 257.4-13.35 257.4-16.45L257.4-16.45Q257.4-19.55 258.5-22.6 259.6-25.65 261.85-28.08 264.1-30.5 267.5-32 270.9-33.5 275.5-33.5L275.5-33.5Q277.15-33.5 278.47-33.2 279.8-32.9 280.85-32.6L280.85-32.6Q281.6-32.35 282.22-32.23 282.85-32.1 283.45-32.1L283.45-32.1 283.45-26.55 282.95-26.55Q282.65-28.1 281.85-29.13 281.05-30.15 279.97-30.7 278.9-31.25 277.68-31.48 276.45-31.7 275.3-31.7ZM299.35 0.35L299.35 0.35Q296.85 0.35 294.85-0.48 292.85-1.3 291.42-2.73 290-4.15 289.22-6.1 288.45-8.05 288.45-10.35L288.45-10.35Q288.45-12.8 289.3-14.83 290.15-16.85 291.65-18.3 293.15-19.75 295.2-20.55 297.25-21.35 299.65-21.35L299.65-21.35Q302.05-21.35 304.05-20.58 306.05-19.8 307.5-18.4 308.95-17 309.75-15.08 310.55-13.15 310.55-10.85L310.55-10.85Q310.55-8.7 309.82-6.68 309.1-4.65 307.67-3.1 306.25-1.55 304.17-0.6 302.1 0.35 299.35 0.35ZM299.05-19.7L299.05-19.7Q297.25-19.6 295.87-18.82 294.5-18.05 293.57-16.82 292.65-15.6 292.17-14.05 291.7-12.5 291.7-10.9L291.7-10.9Q291.7-9.05 292.27-7.33 292.85-5.6 293.92-4.25 295-2.9 296.5-2.1 298-1.3 299.85-1.3L299.85-1.3Q301.7-1.3 303.12-2.1 304.55-2.9 305.5-4.17 306.45-5.45 306.92-7.05 307.4-8.65 307.4-10.25L307.4-10.25Q307.4-11.9 306.9-13.58 306.4-15.25 305.35-16.63 304.3-18 302.72-18.85 301.15-19.7 299.05-19.7ZM334.8-21.55L334.8-3.25Q334.8-2.9 334.9-2.43 335-1.95 335.17-1.53 335.35-1.1 335.65-0.8 335.95-0.5 336.35-0.5L336.35-0.5 336.35 0 331.5 0 331.5-2.75Q330.75-1.65 329.3-0.6 327.85 0.45 325.55 0.45L325.55 0.45Q322.65 0.45 320.95-0.55 319.25-1.55 318.35-3.1 317.45-4.65 317.2-6.48 316.95-8.3 316.95-9.9L316.95-9.9 316.95-17.05Q316.95-17.5 316.92-17.93 316.9-18.35 316.72-18.7 316.55-19.05 316.2-19.28 315.85-19.5 315.2-19.5L315.2-19.5 315.2-19.95 320.25-21.55 320.25-8.8Q320.25-5 321.9-3.2 323.55-1.4 325.95-1.4L325.95-1.4Q327.25-1.4 328.27-1.98 329.3-2.55 330.02-3.35 330.75-4.15 331.12-5 331.5-5.85 331.5-6.4L331.5-6.4 331.5-17.05Q331.5-17.5 331.47-17.93 331.45-18.35 331.27-18.7 331.1-19.05 330.75-19.28 330.4-19.5 329.75-19.5L329.75-19.5 329.75-19.95 334.8-21.55ZM361.3-12.9L361.3-3.25Q361.3-2.85 361.4-2.38 361.5-1.9 361.72-1.5 361.95-1.1 362.22-0.8 362.5-0.5 362.9-0.5L362.9-0.5 362.9 0 356.45 0 356.45-0.5Q356.8-0.5 357.1-0.8 357.4-1.1 357.62-1.5 357.85-1.9 357.95-2.38 358.05-2.85 358.05-3.25L358.05-3.25 358.05-12.55Q358.05-14.35 357.55-15.7 357.05-17.05 356.2-17.95 355.35-18.85 354.27-19.28 353.2-19.7 352.1-19.7L352.1-19.7Q351-19.7 349.92-19.25 348.85-18.8 348.02-18.07 347.2-17.35 346.67-16.38 346.15-15.4 346.15-14.35L346.15-14.35 346.15-3.25Q346.15-2.85 346.25-2.38 346.35-1.9 346.57-1.5 346.8-1.1 347.07-0.8 347.35-0.5 347.75-0.5L347.75-0.5 347.75 0 341.25 0 341.25-0.5Q341.6-0.5 341.9-0.8 342.2-1.1 342.42-1.5 342.65-1.9 342.75-2.38 342.85-2.85 342.85-3.25L342.85-3.25 342.85-17.05Q342.85-17.9 342.6-18.68 342.35-19.45 341.15-19.5L341.15-19.5 341.15-19.95 346.15-21.55 346.15-18.8Q346.5-19.2 347.05-19.68 347.6-20.15 348.37-20.58 349.15-21 350.17-21.28 351.2-21.55 352.6-21.55L352.6-21.55Q354.95-21.55 356.6-20.75 358.25-19.95 359.3-18.68 360.35-17.4 360.82-15.88 361.3-14.35 361.3-12.9L361.3-12.9ZM378.3-19.3L372.7-19.3 372.7-7.25Q372.7-5.95 372.75-4.9 372.8-3.85 373-3.15 373.2-2.45 373.6-2.08 374-1.7 374.7-1.7L374.7-1.7Q375.75-1.7 376.67-2.7 377.6-3.7 377.85-5.1L377.85-5.1 378.3-5.1 378.3-1.45Q377.85-1.45 377.55-1.15L377.55-1.15Q377.15-0.8 376.42-0.4 375.7 0 374.25 0L374.25 0Q372.45 0 371.45-0.7 370.45-1.4 370-2.55 369.55-3.7 369.47-5.1 369.4-6.5 369.4-7.95L369.4-7.95 369.4-19.3 366.6-19.3 366.6-21 369.4-21 369.4-25.45Q369.4-26.3 369.17-27.03 368.95-27.75 367.7-27.8L367.7-27.8 367.7-28.3 372.7-29.9 372.7-21 378.3-21 378.3-19.3ZM398.3-5.7L398.3-5.7Q398.3-4.4 397.65-3.3 397-2.2 395.87-1.38 394.75-0.55 393.25-0.08 391.75 0.4 390 0.4L390 0.4Q387.85 0.4 386.5-0.18 385.15-0.75 384.2-1.35L384.2-1.35Q383.55-1.75 383-2.02 382.45-2.3 381.8-2.3L381.8-2.3 381.8-6.1 382.3-6.1Q382.45-5.4 383.17-4.58 383.9-3.75 384.92-3.05 385.95-2.35 387.17-1.88 388.4-1.4 389.65-1.4L389.65-1.4Q390.55-1.4 391.5-1.6 392.45-1.8 393.22-2.25 394-2.7 394.52-3.38 395.05-4.05 395.05-5L395.05-5Q395.05-5.95 394.5-6.65 393.95-7.35 393.1-7.88 392.25-8.4 391.15-8.8 390.05-9.2 388.95-9.55L388.95-9.55Q387.65-9.95 386.32-10.45 385-10.95 383.95-11.63 382.9-12.3 382.25-13.28 381.6-14.25 381.6-15.6L381.6-15.6Q381.6-16.75 382.02-17.8 382.45-18.85 383.42-19.63 384.4-20.4 385.95-20.88 387.5-21.35 389.7-21.35L389.7-21.35Q391.65-21.35 392.72-21.03 393.8-20.7 394.5-20.35L394.5-20.35Q394.95-20.1 395.4-19.98 395.85-19.85 396.4-19.85L396.4-19.85 396.4-16.35 396-16.35Q395.1-18 393.25-18.85 391.4-19.7 389.45-19.7L389.45-19.7Q388.2-19.7 387.3-19.38 386.4-19.05 385.82-18.57 385.25-18.1 384.97-17.5 384.7-16.9 384.7-16.3L384.7-16.3Q384.7-15.45 385.17-14.85 385.65-14.25 386.47-13.8 387.3-13.35 388.32-12.95 389.35-12.55 390.5-12.2L390.5-12.2Q391.9-11.75 393.3-11.23 394.7-10.7 395.8-9.95 396.9-9.2 397.6-8.18 398.3-7.15 398.3-5.7ZM434.7 0L434.7-0.5 434.95-0.5Q436.15-0.5 436.15-1.6L436.15-1.6Q436.15-2 436-2.45L436-2.45 431.5-14.6 422.75-14.6 418.4-2.65Q418.25-2.25 418.25-1.9L418.25-1.9Q418.25-1.25 418.6-0.88 418.95-0.5 419.35-0.5L419.35-0.5 419.6-0.5 419.6 0 414.05 0 414.05-0.5 414.3-0.5Q414.95-0.5 415.57-1.28 416.2-2.05 416.6-3.1L416.6-3.1 428.05-33.6 439.25-3.4Q439.6-2.4 440.22-1.45 440.85-0.5 441.85-0.5L441.85-0.5 442.1-0.5 442.1 0 434.7 0ZM427.1-26.75L423.25-16.3 430.95-16.3 427.1-26.75ZM451.85 0L445.3 0 445.3-0.5Q445.7-0.5 446-0.8 446.3-1.1 446.52-1.5 446.75-1.9 446.85-2.38 446.95-2.85 446.95-3.25L446.95-3.25 446.95-28.85Q446.95-29.7 446.7-30.45 446.45-31.2 445.2-31.25L445.2-31.25 445.2-31.75 450.25-33.3 450.25-3.25Q450.25-2.85 450.35-2.38 450.45-1.9 450.67-1.5 450.9-1.1 451.17-0.8 451.45-0.5 451.85-0.5L451.85-0.5 451.85 0ZM472.9-5.7L472.9-5.7Q472.9-4.4 472.25-3.3 471.6-2.2 470.47-1.38 469.35-0.55 467.85-0.08 466.35 0.4 464.6 0.4L464.6 0.4Q462.45 0.4 461.1-0.18 459.75-0.75 458.8-1.35L458.8-1.35Q458.15-1.75 457.6-2.02 457.05-2.3 456.4-2.3L456.4-2.3 456.4-6.1 456.9-6.1Q457.05-5.4 457.77-4.58 458.5-3.75 459.52-3.05 460.55-2.35 461.77-1.88 463-1.4 464.25-1.4L464.25-1.4Q465.15-1.4 466.1-1.6 467.05-1.8 467.82-2.25 468.6-2.7 469.13-3.38 469.65-4.05 469.65-5L469.65-5Q469.65-5.95 469.1-6.65 468.55-7.35 467.7-7.88 466.85-8.4 465.75-8.8 464.65-9.2 463.55-9.55L463.55-9.55Q462.25-9.95 460.92-10.45 459.6-10.95 458.55-11.63 457.5-12.3 456.85-13.28 456.2-14.25 456.2-15.6L456.2-15.6Q456.2-16.75 456.63-17.8 457.05-18.85 458.02-19.63 459-20.4 460.55-20.88 462.1-21.35 464.3-21.35L464.3-21.35Q466.25-21.35 467.32-21.03 468.4-20.7 469.1-20.35L469.1-20.35Q469.55-20.1 470-19.98 470.45-19.85 471-19.85L471-19.85 471-16.35 470.6-16.35Q469.7-18 467.85-18.85 466-19.7 464.05-19.7L464.05-19.7Q462.8-19.7 461.9-19.38 461-19.05 460.42-18.57 459.85-18.1 459.57-17.5 459.3-16.9 459.3-16.3L459.3-16.3Q459.3-15.45 459.77-14.85 460.25-14.25 461.07-13.8 461.9-13.35 462.92-12.95 463.95-12.55 465.1-12.2L465.1-12.2Q466.5-11.75 467.9-11.23 469.3-10.7 470.4-9.95 471.5-9.2 472.2-8.18 472.9-7.15 472.9-5.7ZM487.7 0.35L487.7 0.35Q485.2 0.35 483.2-0.48 481.2-1.3 479.77-2.73 478.35-4.15 477.57-6.1 476.8-8.05 476.8-10.35L476.8-10.35Q476.8-12.8 477.65-14.83 478.5-16.85 480-18.3 481.5-19.75 483.55-20.55 485.6-21.35 488-21.35L488-21.35Q490.4-21.35 492.4-20.58 494.4-19.8 495.85-18.4 497.3-17 498.1-15.08 498.9-13.15 498.9-10.85L498.9-10.85Q498.9-8.7 498.18-6.68 497.45-4.65 496.02-3.1 494.6-1.55 492.52-0.6 490.45 0.35 487.7 0.35ZM487.4-19.7L487.4-19.7Q485.6-19.6 484.22-18.82 482.85-18.05 481.93-16.82 481-15.6 480.52-14.05 480.05-12.5 480.05-10.9L480.05-10.9Q480.05-9.05 480.63-7.33 481.2-5.6 482.27-4.25 483.35-2.9 484.85-2.1 486.35-1.3 488.2-1.3L488.2-1.3Q490.05-1.3 491.47-2.1 492.9-2.9 493.85-4.17 494.8-5.45 495.27-7.05 495.75-8.65 495.75-10.25L495.75-10.25Q495.75-11.9 495.25-13.58 494.75-15.25 493.7-16.63 492.65-18 491.07-18.85 489.5-19.7 487.4-19.7Z" opacity="1" transform="matrix(1,0,0,1,0,0)" fill="#31c48d" class="undefined-text-1" data-fill-palette-color="secondary" id="text-1"></path></svg></g></svg></g></svg></g></svg></g></svg></g></svg></g></svg></g><g><path d="M0 123.6c0-68.262 55.338-123.6 123.6-123.6 47.693 0 89.077 27.013 109.687 66.573h-3.2c-20.362-37.943-60.412-63.745-106.487-63.745-66.701 0-120.772 54.072-120.772 120.772 0 66.701 54.072 120.772 120.772 120.772 46.076 0 86.125-25.802 106.487-63.745h3.2c-20.61 39.56-61.994 66.573-109.687 66.573-68.262 0-123.6-55.338-123.6-123.6z" fill="#4d7e3e" stroke="transparent" data-fill-palette-color="tertiary"></path></g></svg></g><defs></defs></svg><rect width="395.52" height="247.2" fill="none" stroke="none" visibility="hidden"></rect></g></svg></g></svg>